<?xml version="1.0" standalone="no"?>
<!DOCTYPE svg PUBLIC "-//W3C//DTD SVG 20010904//EN"
 "http://www.w3.org/TR/2001/REC-SVG-20010904/DTD/svg10.dtd">
<svg version="1.0" xmlns="http://www.w3.org/2000/svg"
 width="800.000000pt" height="800.000000pt" viewBox="0 0 800.000000 800.000000"
 preserveAspectRatio="xMidYMid meet">
<metadata>
Created by potrace 1.14, written by Peter Selinger 2001-2017
</metadata>
<g transform="translate(0.000000,800.000000) scale(0.100000,-0.100000)"
fill="#000000" stroke="none">
<path d="M7487 6333 c-3 -242 -8 -349 -19 -408 -9 -44 -26 -129 -38 -190 -11
-60 -28 -146 -36 -190 -27 -156 -76 -406 -104 -530 -4 -22 -16 -77 -24 -122
-9 -46 -23 -120 -32 -165 -17 -91 -23 -123 -48 -243 -9 -44 -25 -127 -36 -185
-20 -108 -46 -245 -60 -315 -27 -128 -43 -209 -56 -280 -9 -44 -20 -100 -25
-125 -5 -25 -12 -62 -15 -82 -4 -21 -12 -42 -18 -47 -6 -5 -95 -32 -196 -59
-102 -27 -274 -73 -383 -102 -121 -32 -202 -49 -207 -44 -6 6 -6 23 -1 44 13
47 25 110 56 275 15 77 36 185 47 240 34 163 70 346 92 460 9 44 20 100 26
125 9 39 23 102 45 210 3 14 18 97 35 185 16 88 37 194 46 235 9 41 20 93 24
115 35 170 42 207 51 260 5 33 14 69 19 80 5 11 11 38 14 60 2 22 12 72 21
110 9 39 23 106 31 150 8 44 17 88 20 98 3 11 0 17 -9 17 -8 0 -102 -23 -208
-51 -520 -138 -523 -139 -531 -126 -4 6 -8 35 -8 62 l0 50 -71 53 c-39 30 -70
50 -68 45 2 -4 19 -38 37 -74 18 -36 40 -92 48 -125 29 -118 38 -392 35 -1034
-3 -604 -10 -833 -30 -970 -11 -75 -52 -202 -89 -275 -74 -148 -234 -332 -362
-416 -279 -185 -776 -293 -1009 -220 -124 38 -226 131 -304 276 -37 71 -45 96
-55 181 -27 221 -33 437 -30 1046 l3 627 -111 83 c-62 46 -174 128 -249 183
-76 55 -195 142 -264 193 -69 52 -133 98 -142 103 -15 8 -17 -109 -20 -1521
-3 -1151 -7 -1532 -16 -1541 -6 -6 -76 -29 -155 -50 -79 -22 -237 -64 -353
-96 -115 -31 -227 -58 -247 -61 l-38 -4 -1 173 c-1 96 -4 561 -7 1034 -7 844
-7 861 -28 895 -11 19 -31 41 -45 48 -39 20 -178 6 -314 -32 -66 -18 -125 -31
-132 -29 -20 8 -25 59 -21 227 3 144 5 159 23 173 20 14 20 15 -3 31 -12 9
-46 36 -75 59 -28 23 -53 40 -55 38 -2 -2 8 -23 22 -48 62 -105 68 -229 63
-1317 -5 -964 -5 -959 -55 -1105 -34 -99 -71 -156 -157 -240 -161 -160 -249
-196 -885 -365 -576 -154 -743 -200 -749 -206 -6 -6 15 -24 99 -82 72 -50 176
-126 330 -239 69 -51 159 -118 200 -148 41 -30 100 -73 130 -95 60 -44 61 -44
110 -29 19 5 127 35 240 64 113 30 304 81 425 114 121 32 298 79 394 105 96
25 179 50 186 56 6 5 29 16 51 24 138 48 287 150 366 250 78 97 112 196 127
370 5 53 13 91 21 96 8 5 29 -4 55 -24 24 -17 113 -83 200 -146 86 -63 201
-148 256 -188 l98 -73 133 36 c73 19 234 62 358 95 124 33 235 62 248 66 20 6
22 13 22 70 0 79 11 82 93 20 l58 -44 102 28 c56 15 184 49 284 76 l183 49 2
244 c2 161 7 246 14 248 5 2 30 -12 55 -30 211 -160 321 -234 385 -259 91 -35
197 -44 339 -28 204 22 362 65 521 140 23 11 46 20 53 20 6 0 11 5 11 10 0 6
6 10 14 10 25 0 171 112 253 196 56 56 101 115 142 185 33 56 62 107 64 113 6
16 78 -23 162 -89 39 -30 103 -79 144 -109 l73 -54 67 19 c36 11 158 44 271
74 266 70 422 113 424 117 2 2 21 100 44 218 22 118 44 229 47 245 18 92 36
180 50 255 9 47 22 105 28 130 7 31 11 431 13 1325 l3 1280 -156 110 c-86 61
-161 115 -167 120 -12 11 -103 79 -153 113 l-32 23 -4 -328z m-3499 -3355 l2
-317 -22 -15 c-22 -14 -543 -156 -572 -156 -11 0 -14 56 -18 307 -3 170 -3
315 0 325 5 22 18 26 307 103 138 37 255 68 260 70 40 14 40 13 43 -317z"/>
<path d="M4981 5582 c-52 -26 -74 -63 -85 -144 -15 -104 -15 -1935 0 -2007 13
-61 24 -71 79 -71 57 0 108 43 126 107 12 40 14 219 13 1033 0 542 -4 1003 -8
1025 -15 74 -56 93 -125 57z"/>
<path d="M935 4384 c-5 -2 -29 -8 -52 -14 l-43 -11 0 -994 c0 -547 1 -995 3
-995 2 0 26 8 53 17 68 23 99 48 126 102 l23 46 3 855 c2 470 1 873 -3 895 -3
22 -13 50 -23 62 -16 22 -66 43 -87 37z"/>
</g>
</svg>
